:FULLY-SPECIFIED
:FORCE-ALL-JOINTS-BE-3DOF
:DEGREES
714
root -11.7101 13.9154 -38.3003 511.903 -61.6129 213.469
lfemur -65.3632 24.8394 -1.33583
ltibia 75.9146 -0 0
lfoot -8.26968 -7.97961 -0.001084
ltoes -2.74959 0 0
rfemur 9.08727 -10.8511 11.6085
rtibia 40.0521 0 0
rfoot -24.8755 -27.1299 -0.000160283
rtoes -28.8371 0 0
lowerback 12.2329 1.43572 8.82392
upperback -1.69531 3.47472 5.87973
thorax -8.58475 1.28562 0.703894
lowerneck -4.0156 4.9539 0.983659
upperneck 3.31785 6.51915 0.760707
head 1.71357 3.28006 0.247274
lclavicle -5.9946e-14 3.16068e-14 0
lhumerus 64.6014 16.3573 112.508
lradius 11.3232 0 0
lwrist -81.9615 0 0
lhand -33.6608 41.132 0
lfingers 7.12502 0 0
lthumb -6.85212 71.0011 0
rclavicle -5.9946e-14 3.16068e-14 0
rhumerus -75.3502 19.4645 -95.4467
rradius 114.654 0 0
rwrist -66.7533 0 0
rhand -8.3884 -40.5589 0
rfingers 7.12502 0 0
rthumb 17.5351 -69.7881 0
715
root -11.718 13.9096 -38.3053 511.849 -61.7512 213.576
lfemur -65.4784 24.889 -1.37362
ltibia 76.1435 0 0
lfoot -8.39742 -7.97256 -0.000942587
ltoes -2.79858 0 0
rfemur 9.18783 -10.8561 11.6534
rtibia 40.0292 -0 0
rfoot -24.8686 -27.1553 -0.000192649
rtoes -28.9288 0 0
lowerback 12.2268 1.43666 8.87247
upperback -1.73131 3.4857 5.83519
thorax -8.61478 1.28691 0.627392
lowerneck -3.92437 4.90705 0.903776
upperneck 3.33837 6.45654 0.886993
head 1.69679 3.25039 0.29516
lclavicle -2.02512e-15 -1.09332e-14 0
lhumerus 62.8865 14.1686 106.961
lradius 11.6491 0 0
lwrist -76.7008 0 0
lhand -33.9026 41.9464 0
lfingers 7.12502 0 0
lthumb -7.08551 71.8078 0
rclavicle -2.02512e-15 -1.09332e-14 0
rhumerus -75.335 19.2364 -95.4169
rradius 114.536 0 0
rwrist -66.4644 0 0
rhand -8.09128 -40.2427 0
rfingers 7.12502 0 0
rthumb 17.821 -69.4462 0
716
root -11.7251 13.9034 -38.3128 511.669 -61.8318 213.799
lfemur -65.5937 24.9385 -1.41153
ltibia 76.2035 -0 0
lfoot -8.52516 -7.96552 -0.000785469
ltoes -2.84756 0 0
rfemur 9.28839 -10.8611 11.6983
rtibia 40.0062 -0 0
rfoot -24.8616 -27.1807 -0.000221931
rtoes -29.0205 0 0
lowerback 12.2178 1.38088 8.87114
upperback -1.69375 3.406 5.86615
thorax -8.57428 1.2505 0.676424
lowerneck -4.24429 4.78152 0.853209
upperneck 3.60023 6.27983 1.01345
head 1.8327 3.16561 0.35231
lclavicle 3.92972e-14 8.46823e-14 0
lhumerus 61.9692 12.7794 103.376
lradius 12.0241 0 0
lwrist -73.5379 0 0
lhand -33.2656 43.4704 0
lfingers 7.12502 0 0
lthumb -6.47058 73.3516 0
rclavicle 3.92972e-14 8.46823e-14 0
rhumerus -75.2199 19.3592 -95.4157
rradius 114.438 0 0
rwrist -66.3152 0 0
rhand -7.74799 -39.9314 0
rfingers 7.12502 0 0
rthumb 18.1513 -69.1044 0
717
root -11.7322 13.896 -38.3187 511.554 -61.8978 213.978
lfemur -65.709 24.9879 -1.44957
ltibia 76.2634 -0 0
lfoot -8.65289 -7.95847 -0.000612649
ltoes -2.89655 0 0
rfemur 9.38895 -10.8662 11.7432
rtibia 39.9833 -0 0
rfoot -24.8547 -27.2062 -0.000248132
rtoes -29.1123 0 0
lowerback 12.162 1.34315 8.88394
upperback -1.68113 3.34861 5.88281
thorax -8.5314 1.22388 0.699209
lowerneck -4.54037 4.76204 0.317147
upperneck 3.82351 6.25781 1.53309
head 1.92355 3.16077 0.614645
lclavicle 5.02056e-14 2.70347e-14 0
lhumerus 61.1734 11.4939 100.097
lradius 12.358 0 0
lwrist -70.5499 0 0
lhand -32.9592 44.716 0
lfingers 7.12502 0 0
lthumb -6.17482 74.606 0
rclavicle 5.02056e-14 2.70347e-14 0
rhumerus -75.1625 19.3768 -95.4338
rradius 114.363 0 0
rwrist -65.9505 0 0
rhand -7.40038 -39.5529 0
rfingers 7.12502 0 0
rthumb 18.4857 -68.6946 0
718
root -11.7392 13.8909 -38.3252 511.425 -61.9606 214.167
lfemur -65.8245 25.0373 -1.48774
ltibia 76.3234 -0 0
lfoot -8.78062 -7.95143 -0.000424129
ltoes -2.94553 0 0
rfemur 9.4895 -10.8714 11.7881
rtibia 39.9603 -0 0
rfoot -24.8477 -27.2316 -0.00027125
rtoes -29.204 0 0
lowerback 12.1267 1.36483 8.97196
upperback -1.68368 3.38502 5.88358
thorax -8.50746 1.23745 0.645697
lowerneck -4.70078 4.65894 -0.00566481
upperneck 3.96456 6.12312 1.84973
head 1.9794 3.09758 0.770951
lclavicle 5.04416e-14 -2.0276e-14 0
lhumerus 60.71 10.6321 98.3393
lradius 12.6066 0 0
lwrist -68.9433 0 0
lhand -32.7248 45.1809 0
lfingers 7.12502 0 0
lthumb -5.94857 75.0774 0
rclavicle 5.04416e-14 -2.0276e-14 0
rhumerus -75.1334 19.2421 -95.3733
rradius 114.327 0 0
rwrist -65.6649 0 0
rhand -7.05013 -39.2145 0
rfingers 7.12502 0 0
rthumb 18.8226 -68.3238 0
719
root -11.7464 13.8874 -38.3318 511.409 -62.0259 214.239
lfemur -65.94 25.0866 -1.52602
ltibia 76.3833 -0 0
lfoot -8.90834 -7.94438 -0.000219912
ltoes -2.99452 0 0
rfemur 9.50041 -10.851 11.7793
rtibia 39.9374 -0 0
rfoot -24.8408 -27.257 -0.000291286
rtoes -29.2957 0 0
lowerback 12.081 1.33624 8.94513
upperback -1.68873 3.33776 5.88804
thorax -8.49063 1.21682 0.675024
lowerneck -3.98543 4.74754 1.12415
upperneck 3.40362 6.23654 0.72359
head 1.74188 3.14012 0.205862
lclavicle 2.3382e-14 1.25234e-13 0
lhumerus 61.1381 11.3888 100.005
lradius 12.4901 0 0
lwrist -70.7269 0 0
lhand -32.9547 44.7042 0
lfingers 7.12502 0 0
lthumb -6.17047 74.5944 0
rclavicle 2.3382e-14 1.25234e-13 0
rhumerus -75.1658 19.256 -95.4503
rradius 114.298 0 0
rwrist -65.3426 0 0
rhand -6.69862 -38.8419 0
rfingers 7.12502 0 0
rthumb 19.1607 -67.9181 0
720
root -11.7542 13.8828 -38.3366 511.405 -62.1112 214.314
lfemur -66.0556 25.1358 -1.56444
ltibia 76.4433 -0 0
lfoot -9.03606 -7.93734 0
ltoes -3.0435 0 0
rfemur 9.51132 -10.8306 11.7705
rtibia 39.9144 -0 0
rfoot -24.8338 -27.2824 -0.000308239
rtoes -29.3874 0 0
lowerback 12.0241 1.32197 8.99452
upperback -1.71075 3.31983 5.86059
thorax -8.47859 1.20577 0.622903
lowerneck -4.05436 4.73972 0.765257
upperneck 3.4436 6.23443 0.98709
head 1.74606 3.14052 0.348629
lclavicle 5.73991e-15 -9.34288e-15 0
lhumerus 61.8259 12.4099 102.646
lradius 12.2563 0 0
lwrist -73.3062 0 0
lhand -33.1172 43.9057 0
lfingers 7.12502 0 0
lthumb -6.32736 73.7912 0
rclavicle 5.73991e-15 -9.34288e-15 0
rhumerus -75.1656 19.1539 -95.4349
rradius 114.263 0 0
rwrist -65.0328 0 0
rhand -6.37862 -38.5139 0
rfingers 7.12502 0 0
rthumb 19.4684 -67.5593 0
721
root -11.7599 13.879 -38.3415 511.403 -62.1322 214.349
lfemur -66.1713 25.1849 -1.60298
ltibia 76.5032 -0 0
lfoot -9.05647 -7.88758 -0.000248145
ltoes -3.09249 0 0
rfemur 9.52222 -10.8102 11.7617
rtibia 39.8915 -0 0
rfoot -24.8269 -27.3079 -0.00032211
rtoes -29.4791 0 0
lowerback 12.0139 1.34558 9.01253
upperback -1.71487 3.35281 5.85421
thorax -8.47415 1.22084 0.600265
lowerneck -4.04538 4.72992 0.726988
upperneck 3.45724 6.22307 0.999831
head 1.74721 3.13467 0.358529
lclavicle 1.36664e-15 7.11649e-14 0
lhumerus 63.1073 14.1194 107.254
lradius 11.8686 0 0
lwrist -77.6787 0 0
lhand -33.3361 42.487 0
lfingers 7.12502 0 0
lthumb -6.53864 72.366 0
rclavicle 1.36664e-15 7.11649e-14 0
rhumerus -75.1851 19.0466 -95.4489
rradius 114.205 0 0
rwrist -64.7317 0 0
rhand -6.05261 -38.1657 0
rfingers 7.12502 0 0
rthumb 19.7818 -67.179 0
722
root -11.7663 13.8767 -38.3486 511.492 -62.146 214.318
lfemur -66.287 25.234 -1.64164
ltibia 76.5632 -0 0
lfoot -9.07688 -7.83782 -0.000478567
ltoes -3.14148 0 0
rfemur 9.53312 -10.7898 11.7529
rtibia 39.8685 -0 0
rfoot -24.8199 -27.3333 -0.000332898
rtoes -29.5708 0 0
lowerback 11.9537 1.33192 8.97327
upperback -1.72301 3.32177 5.83693
thorax -8.45075 1.20891 0.610144
lowerneck -3.88856 4.77128 0.957531
upperneck 3.36158 6.27369 0.855365
head 1.70095 3.15911 0.271164
lclavicle 4.17448e-15 -8.88567e-14 0
lhumerus 63.2725 14.4095 107.703
lradius 11.8557 0 0
lwrist -77.8318 0 0
lhand -33.5187 41.5894 0
lfingers 7.12502 0 0
lthumb -6.71493 71.4629 0
rclavicle 4.17448e-15 -8.88567e-14 0
rhumerus -75.1877 19.0991 -95.5153
rradius 114.151 0 0
rwrist -64.5575 0 0
rhand -5.73317 -37.8569 0
rfingers 7.12502 0 0
rthumb 20.0888 -66.8383 0
723
root -11.7722 13.8758 -38.3551 511.603 -62.1711 214.232
lfemur -66.4029 25.283 -1.68043
ltibia 76.6231 -0 0
lfoot -9.09729 -7.78807 -0.000691267
ltoes -3.19046 0 0
rfemur 9.54402 -10.7694 11.7442
rtibia 39.8456 -0 0
rfoot -24.813 -27.3587 -0.000340604
rtoes -29.6625 0 0
lowerback 11.9069 1.34601 8.88456
upperback -1.71867 3.32201 5.8345
thorax -8.42313 1.21512 0.657043
lowerneck -3.81626 4.7894 1.0823
upperneck 3.31213 6.29698 0.744334
head 1.68024 3.16968 0.214177
lclavicle -4.62174e-15 -1.43125e-14 0
lhumerus 62.0445 12.8305 103.363
lradius 12.2545 0 0
lwrist -73.1982 0 0
lhand -33.3954 41.5036 0
lfingers 7.12502 0 0
lthumb -6.59589 71.3809 0
rclavicle -4.62174e-15 -1.43125e-14 0
rhumerus -75.2208 19.1076 -95.5639
rradius 114.112 0 0
rwrist -64.3499 0 0
rhand -5.39122 -37.5231 0
rfingers 7.12502 0 0
rthumb 20.4175 -66.4697 0
724
root -11.7776 13.8709 -38.3593 511.693 -62.1778 214.208
lfemur -66.5188 25.332 -1.71934
ltibia 76.6831 -0 0
lfoot -9.11769 -7.73831 -0.000886244
ltoes -3.23945 0 0
rfemur 9.55491 -10.7491 11.7354
rtibia 39.8226 -0 0
rfoot -24.806 -27.3841 -0.000345228
rtoes -29.7543 0 0
lowerback 11.8476 1.39318 8.92562
upperback -1.73484 3.38376 5.80668
thorax -8.39949 1.24341 0.594541
lowerneck -3.84292 4.76027 1.07687
upperneck 3.35427 6.2573 0.753236
head 1.69804 3.15016 0.218302
lclavicle 2.38293e-14 5.14852e-14 0
lhumerus 61.2663 11.6116 100.608
lradius 12.5391 0 0
lwrist -70.4159 0 0
lhand -33.3905 42.2434 0
lfingers 7.12502 0 0
lthumb -6.59118 72.1209 0
rclavicle 2.38293e-14 5.14852e-14 0
rhumerus -75.2626 19.0059 -95.5866
rradius 114.075 0 0
rwrist -64.1677 0 0
rhand -5.06484 -37.1964 0
rfingers 7.12502 0 0
rthumb 20.7311 -66.109 0
725
root -11.7819 13.8687 -38.3647 511.745 -62.1787 214.169
lfemur -66.6348 25.3808 -1.75837
ltibia 76.7431 -0 0
lfoot -9.1381 -7.68855 -0.0010635
ltoes -3.28843 0 0
rfemur 9.5658 -10.7287 11.7266
rtibia 39.7997 -0 0
rfoot -24.7991 -27.4096 -0.000346769
rtoes -29.846 0 0
lowerback 11.8371 1.4025 8.88749
upperback -1.73339 3.38968 5.81182
thorax -8.3938 1.24863 0.620144
lowerneck -3.82247 4.81224 1.06456
upperneck 3.38583 6.3255 0.79347
head 1.70287 3.1849 0.234522
lclavicle -3.94215e-14 -5.66536e-14 0
lhumerus 61.1981 11.5528 100.405
lradius 12.5519 0 0
lwrist -70.5683 0 0
lhand -33.2394 43.0205 0
lfingers 7.12502 0 0
lthumb -6.44532 72.9024 0
rclavicle -3.94215e-14 -5.66536e-14 0
rhumerus -75.2244 18.981 -95.6161
rradius 113.939 0 0
rwrist -63.8405 0 0
rhand -4.73473 -36.8276 0
rfingers 7.12502 0 0
rthumb 21.0483 -65.7053 0
726
root -11.7865 13.866 -38.369 511.904 -62.2008 214.004
lfemur -66.7509 25.4296 -1.79753
ltibia 76.803 -0 0
lfoot -9.15851 -7.63879 -0.00122303
ltoes -3.33742 0 0
rfemur 9.57668 -10.7083 11.7179
rtibia 39.7767 -0 0
rfoot -24.7922 -27.435 -0.000345228
rtoes -29.9377 0 0
lowerback 11.8063 1.41705 8.78949
upperback -1.71981 3.3904 5.79774
thorax -8.3651 1.25571 0.659079
lowerneck -3.75288 4.85799 1.30076
upperneck 3.36438 6.38875 0.47379
head 1.70326 3.21264 0.0968154
lclavicle -5.34234e-14 6.06293e-14 0
lhumerus 61.6879 12.3293 102.256
lradius 12.3261 0 0
lwrist -72.9332 0 0
lhand -33.1135 43.7105 0
lfingers 7.12502 0 0
lthumb -6.3238 73.5961 0
rclavicle -5.34234e-14 6.06293e-14 0
rhumerus -75.2 18.9803 -95.661
rradius 113.799 0 0
rwrist -63.5673 0 0
rhand -4.41899 -36.4781 0
rfingers 7.12502 0 0
rthumb 21.3516 -65.3218 0
